<?xml version="1.0" standalone="no"?>
<!DOCTYPE svg PUBLIC "-//W3C//DTD SVG 20010904//EN"
 "http://www.w3.org/TR/2001/REC-SVG-20010904/DTD/svg10.dtd">
<svg version="1.0" xmlns="http://www.w3.org/2000/svg"
 width="637.000000pt" height="637.000000pt" viewBox="0 0 637.000000 637.000000"
 preserveAspectRatio="xMidYMid meet">
<metadata>
Created by potrace 1.11, written by Peter Selinger 2001-2013
</metadata>
<g transform="translate(0.000000,637.000000) scale(0.100000,-0.100000)"
fill="#000000" stroke="none">
<path d="M3112 5537 c-67 -99 -81 -144 -62 -202 6 -18 22 -43 37 -56 42 -39
54 -77 36 -114 -9 -18 -28 -40 -44 -49 -16 -9 -29 -20 -30 -24 -1 -4 -2 -53
-3 -108 -1 -78 -6 -105 -18 -118 -9 -9 -26 -28 -37 -43 -15 -18 -32 -27 -59
-29 -140 -11 -304 -41 -427 -80 -44 -14 -87 -27 -95 -29 -8 -2 -33 -10 -55
-18 -22 -8 -49 -18 -60 -23 -11 -4 -24 -8 -30 -9 -9 -3 -86 -32 -130 -50 -11
-5 -22 -9 -25 -9 -3 -1 -30 -11 -60 -23 -198 -78 -354 -131 -409 -139 -20 -3
-53 -9 -75 -14 -43 -9 -276 -6 -316 5 -14 3 -32 8 -40 10 -8 2 -16 4 -17 5 -2
2 -6 3 -10 4 -5 1 -22 5 -39 10 -29 6 -44 24 -58 69 -3 11 0 17 9 17 78 0 127
118 84 202 -67 131 -269 151 -406 40 -82 -66 -108 -179 -63 -276 25 -53 99
-124 170 -162 55 -30 56 -15 -5 -179 -20 -55 -38 -104 -39 -110 -2 -5 -6 -17
-9 -25 -3 -8 -24 -69 -47 -135 -23 -66 -48 -136 -56 -155 -7 -19 -52 -143 -99
-275 -133 -372 -264 -734 -288 -800 -12 -33 -22 -62 -23 -65 0 -3 -3 -12 -7
-20 -22 -58 -59 -162 -61 -173 -3 -13 -4 -15 -42 -112 l-23 -60 -78 -2 c-43 0
-80 -2 -83 -2 -9 -2 90 -61 193 -115 166 -86 347 -146 522 -172 17 -3 41 -7
55 -11 41 -10 380 -12 440 -3 30 5 73 11 95 14 54 7 106 17 185 36 61 15 223
71 234 81 6 5 16 9 24 9 17 0 224 103 264 131 15 11 28 23 28 27 0 4 -35 7
-77 7 -73 0 -77 1 -84 25 -4 14 -44 126 -89 250 -45 124 -87 243 -95 265 -15
46 -82 233 -92 255 -3 8 -7 20 -9 25 -7 23 -47 132 -59 160 -7 17 -18 46 -23
65 -6 19 -27 80 -47 135 -35 95 -135 374 -230 640 -24 66 -48 133 -54 148 -15
38 -14 40 11 33 88 -26 275 -26 413 -1 114 21 531 156 685 222 8 3 17 7 20 8
3 1 50 15 105 32 99 31 171 51 210 59 157 31 325 49 325 35 0 -4 17 -26 38
-50 l38 -43 -2 -1452 c-1 -798 -4 -1464 -8 -1481 -29 -127 -75 -215 -161 -300
-113 -113 -271 -183 -450 -200 -37 -3 -83 -12 -103 -20 -40 -17 -82 -62 -82
-87 0 -16 -12 -18 -107 -18 -569 -1 -636 -4 -688 -28 -55 -25 -95 -73 -98
-118 l-2 -29 1838 -2 c2029 -3 1864 -8 1836 60 -16 40 -42 64 -99 91 -46 22
-120 24 -702 26 -81 0 -88 2 -88 20 0 45 -81 95 -173 105 -104 12 -121 15
-176 31 -121 35 -238 108 -316 197 -42 49 -100 149 -110 193 -2 10 -10 37 -16
59 -8 29 -12 436 -13 1498 l-2 1459 23 21 c13 12 30 34 38 48 12 22 19 25 62
23 144 -7 325 -43 508 -101 84 -27 306 -107 340 -123 56 -25 333 -112 403
-126 12 -2 34 -6 50 -9 128 -25 280 -25 404 0 32 6 32 10 -30 -160 -77 -213
-145 -401 -167 -465 -25 -73 -111 -314 -190 -530 -29 -80 -81 -224 -115 -320
-34 -96 -66 -184 -70 -195 -5 -11 -34 -90 -63 -175 l-55 -155 -76 0 c-41 -1
-78 -3 -81 -6 -7 -8 175 -110 255 -144 140 -59 333 -119 423 -130 15 -2 31 -6
35 -9 31 -19 412 -28 546 -13 56 6 168 28 266 52 63 15 193 66 285 111 125 61
241 130 228 136 -4 2 -40 3 -79 2 -86 -2 -71 -23 -154 216 -34 96 -67 191 -75
210 -17 44 -89 242 -155 430 -28 80 -60 169 -71 198 -47 129 -58 159 -64 182
-4 14 -13 39 -20 55 -7 17 -28 71 -45 120 -17 50 -40 113 -50 140 -10 28 -38
104 -61 170 -23 66 -61 174 -85 239 -24 66 -43 120 -41 121 1 2 27 18 57 36
98 60 166 136 177 202 9 52 9 65 1 102 -38 171 -282 259 -430 154 -51 -37 -77
-90 -73 -149 3 -58 28 -93 82 -116 32 -14 32 -14 18 -46 -11 -28 -22 -35 -72
-50 -93 -28 -131 -33 -248 -33 -200 0 -267 17 -620 152 -93 36 -181 69 -195
73 -14 5 -70 25 -125 45 -55 20 -107 38 -115 40 -8 3 -58 16 -110 29 -52 14
-108 27 -125 30 -16 3 -41 8 -55 11 -14 2 -50 7 -80 9 -100 9 -134 18 -148 37
-8 11 -23 29 -35 40 -19 17 -21 31 -22 124 -1 102 -1 104 -30 129 -17 14 -33
26 -37 26 -3 0 -10 13 -16 28 -12 35 1 68 47 117 26 29 34 48 38 89 5 49 3 55
-52 136 -60 89 -84 120 -94 120 -3 0 -34 -42 -69 -93z m-2022 -842 c23 -21 26
-71 6 -97 -14 -20 -36 -24 -36 -8 0 6 -10 8 -24 4 -32 -8 -50 23 -36 60 8 22
7 26 -8 26 -10 0 -28 -9 -39 -20 -30 -27 -21 -67 22 -106 24 -21 33 -37 29
-48 -5 -14 -11 -12 -44 12 -62 44 -82 108 -48 150 7 8 27 24 43 34 36 23 106
19 135 -7z m4331 3 c44 -25 65 -70 50 -109 -12 -33 -71 -89 -93 -89 -28 0 -21
22 18 55 46 39 51 75 17 109 -30 30 -45 25 -40 -12 5 -35 -10 -64 -31 -60 -9
1 -22 -1 -29 -5 -35 -22 -69 43 -46 87 26 49 91 59 154 24z m-4384 -204 c1
-18 -2 -23 -9 -16 -6 6 -8 18 -5 26 9 22 12 20 14 -10z m4313 -5 c0 -11 -4
-18 -9 -14 -6 3 -9 14 -8 25 2 24 17 15 17 -11z m-4273 -33 c-2 -6 -9 -1 -16
12 -6 12 -9 28 -5 34 8 13 27 -28 21 -46z m4238 32 c-1 -12 -8 -24 -15 -26 -9
-3 -11 1 -7 12 4 10 7 22 7 27 0 5 4 9 8 9 5 0 8 -10 7 -22z m-4280 -1252 l0
-1021 -413 -1 c-227 0 -415 2 -417 6 -2 3 6 28 17 55 29 73 38 97 133 365 47
135 91 256 97 270 5 14 18 50 28 80 10 30 22 66 28 80 13 31 25 63 26 70 1 6
39 111 67 185 10 28 50 140 89 250 39 110 74 207 77 215 3 8 7 20 9 25 2 6 10
28 18 50 27 73 108 299 129 361 l20 61 46 -15 47 -14 -1 -1022z m4415 979 c71
-193 93 -252 95 -265 2 -8 4 -16 5 -17 2 -2 3 -6 5 -10 1 -5 4 -15 8 -23 3 -8
38 -105 77 -215 39 -110 74 -209 79 -220 25 -59 71 -194 71 -208 0 -9 4 -18 9
-21 5 -3 12 -17 15 -30 3 -14 11 -38 18 -53 6 -15 12 -35 14 -43 2 -8 7 -23
12 -35 11 -22 80 -212 142 -390 21 -60 55 -155 75 -210 20 -55 38 -104 39
-110 2 -5 6 -17 9 -25 4 -8 15 -40 26 -71 l19 -55 -417 0 -416 1 0 1021 -1
1022 46 14 c30 10 46 11 48 4 2 -6 12 -33 22 -61z m-4318 18 c35 -7 36 -8 99
-185 28 -79 70 -197 94 -263 23 -66 45 -127 48 -135 17 -47 146 -403 207 -575
39 -110 83 -229 97 -265 14 -36 27 -72 28 -80 2 -8 4 -15 5 -15 1 0 3 -7 5
-15 1 -8 13 -40 25 -70 12 -30 28 -75 36 -100 8 -25 19 -54 24 -65 11 -24 71
-196 73 -210 1 -5 6 -13 11 -16 29 -21 -36 -25 -416 -25 l-413 1 0 1018 0
1018 24 -6 c13 -3 36 -9 53 -12z m4183 -1004 l0 -1014 -417 -1 c-230 0 -418 1
-418 2 0 2 4 13 9 26 5 13 18 48 29 78 11 30 24 64 28 75 4 11 8 22 8 25 1 3
6 19 13 35 6 17 28 77 48 135 20 58 45 128 55 155 11 28 46 127 80 220 33 94
65 179 70 190 8 18 19 51 26 80 2 6 24 66 50 135 25 69 57 159 70 200 14 41
29 84 34 95 5 11 32 85 60 165 28 80 59 165 69 190 10 25 28 74 40 110 12 36
26 72 31 80 9 15 85 40 105 36 7 -2 10 -349 10 -1017z"/>
</g>
</svg>
