<?xml version="1.0" standalone="no"?>
<svg xmlns="http://www.w3.org/2000/svg" height="1256" width="1600" version="1.1" xmlns:xlink="http://www.w3.org/1999/xlink">
<use xlink:href="#a" transform="matrix(-1 0 0 1 1600 1.31e-7)" height="1300" width="1640" y="0" x="0"/>
<path id="a" d="m800.1 12.73-27.88 39.41c-5.43 6.58-8.688 14.99-8.688 24.19 0 11.69 5.27 22.14 13.56 29.13 19.43 17.61 9.245 33.57-12 43.75-0.466 26.15 0.1347 43.2-0.4062 54.38-7.575 5.438-13.84 12.59-18.25 20.88-7.442 0.1629-14.85 0.8822-21.69 1.656-99.9 8.3-189.6 55.87-283.4 86.56-46.83 15.46-98.09 20.2-145.7 5.344-5.684-1.769-11.6-3.54-17.53-5.469l-6.375-17.66c1.331-0.2149 2.652-0.5156 3.938-0.9688 24.8-3.938 32.85-36.63 18.22-55.06-22.72-33.42-73.87-30.23-101.3-4.594-26.05 19.91-26.1 60.65-4.219 83.59 12.93 13.97 28.49 24.19 45.41 31.94l-187.8 523.5-43.28-0.0312c12.6 7.428 23.59 15.86 35.19 21.44 102.7 59.45 229 71.43 343.6 41.53 54.4-15.48 96.39-33.17 140.6-62.69l-42.53-0.0312-181.1-504.3c7.882 1.536 15.74 2.913 23.47 4.188 85.08 11.84 165.1-25.49 243.2-53.41 58.05-21.35 118.3-39.12 180.6-40.28v0.1875c4.509 9.086 11.21 16.89 19.44 22.69v704.7c0 134.3-126.7 159-152.8 159-26.02 0-50.25 12.18-50.25 31.97-53.15 1.597-116.2 0-155.9 0-39.73 0-69.44 11.42-69.44 44.34 154.4 1.155 308.9 0.4788 463.3 0.6562zm-544.9 230.7c4.273-0.008 9.544 0.8304 13.31 2.912 17.35 6.854 13.02 32.31-2.529 32.87-0.9868-2.47-0.2839-5.026-2.938-5.562-2.451-0.4959-3.351 2.413-4.031 4.188-1.287-0.5383-2.856-0.9667-4.203-1.86-16-11.49 9.684-27.74-10.37-21.95-20.23 12.98-5.965 30.52 9.974 38.06l-3.406 9.469c-9.686-5.288-18.25-12.12-24.41-21.59-9.652-18.78 10.08-36.5 28.59-36.53zm3.406 50.31 1.688 0.5v11.78l-5.25-2.406zm6.188 1.344 2.281 0.1562 5.594 15.56-7.875-2.906zm-27 56.59c7.318 3.143 14.85 5.848 22.53 8.219l0.2188 513.5-210-0.0937zm27 9.531 28.47 6.938 181.6 505.4-209.7-0.0937-0.4375-1.594z"/>
<rect style="color:#000000;fill:none" height="548.2" width="10.64" y="-1836" x="-936.7"/>
</svg>
